<svg width="22" height="22" viewBox="0 0 22 22" fill="none" xmlns="http://www.w3.org/2000/svg">
<path d="M18.0747 1.00309L3.93411 0.996889C2.31882 0.996182 1.00385 2.31 1.00314 3.92529L0.996944 18.0659C0.996236 19.6812 2.31005 20.9962 3.92535 20.9969L9.82378 20.9995L9.82688 13.9292L7.48313 13.9281L7.48467 10.4125L9.82842 10.4135L9.82947 8.03072C9.83032 6.09209 11.408 4.51579 13.3466 4.51664L16.9013 4.5182L16.8998 8.03382L13.3451 8.03226L13.344 10.4151L16.8987 10.4166L16.3113 13.932L13.3425 13.9307L13.3394 21.001L18.066 21.0031C19.6813 21.0038 20.9962 19.69 20.9969 18.0747L21.0031 3.93406C21.0038 2.31876 19.69 1.00379 18.0747 1.00309Z" fill="black"/>
</svg>
