<svg width="21" height="20" viewBox="0 0 21 20" fill="none" xmlns="http://www.w3.org/2000/svg">
<path d="M10.3801 0.500266C4.85553 0.570008 0.435947 4.98782 0.50385 10.3668C0.558188 14.6711 3.46904 18.2851 7.45747 19.5219C7.95858 19.6072 8.1381 19.3034 8.13483 19.0449C8.13191 18.8136 8.11584 18.2008 8.10143 17.3889C5.3274 18.0113 4.71687 16.1247 4.71687 16.1247C4.24771 15.0062 3.58647 14.7139 3.58647 14.7139C2.67308 14.1215 3.649 14.1215 3.649 14.1215C4.65394 14.1766 5.19321 15.1058 5.19321 15.1058C6.10361 16.5839 7.54723 16.1352 8.11571 15.8794C8.19774 15.248 8.44981 14.816 8.73255 14.5688C6.50881 14.3531 4.16426 13.545 4.11715 9.8131C4.10373 8.75003 4.48023 7.87617 5.11324 7.18662C4.99764 6.94189 4.64767 5.95576 5.16819 4.60754C5.16819 4.60754 6.00233 4.33595 7.93058 5.57147C8.72778 5.34496 9.57636 5.22685 10.4262 5.21116C11.2762 5.20539 12.1275 5.30204 12.9302 5.50836C14.8141 4.22471 15.6549 4.47516 15.6549 4.47516C16.2092 5.80981 15.8843 6.80446 15.7874 7.05187C16.4334 7.72528 16.8319 8.58935 16.8453 9.65242C16.8925 13.3942 14.5656 14.2473 12.3438 14.5149C12.6975 14.8029 13.03 15.396 13.0415 16.3087C13.058 17.6122 13.0587 18.6597 13.0627 18.9761C13.0659 19.2313 13.2447 19.5339 13.756 19.43C17.7403 18.1008 20.5565 14.4121 20.5023 10.1143C20.4344 4.73536 15.9022 0.430557 10.3801 0.500266Z" fill="#212121"/>
</svg>
