<svg width="22" height="22" viewBox="0 0 22 22" fill="none" xmlns="http://www.w3.org/2000/svg">
<path d="M14.6636 0.96802L7.16386 1.03275C3.71274 1.06253 0.938246 3.88533 0.968031 7.33645L1.03276 14.8362C1.06254 18.2873 3.88534 21.0618 7.33646 21.032L14.8362 20.9673C18.2873 20.9375 21.0618 18.1147 21.032 14.6636L20.9673 7.16385C20.9375 3.71273 18.1147 0.938235 14.6636 0.96802ZM19.1571 14.6798C19.1779 17.0922 17.2324 19.0715 14.82 19.0923L7.32028 19.1571C4.90787 19.1779 2.92851 17.2324 2.90769 14.82L2.84296 7.32027C2.82214 4.90786 4.76763 2.9285 7.18004 2.90768L14.6798 2.84295C17.0922 2.82213 19.0715 4.76762 19.0924 7.18003L19.1571 14.6798Z" fill="black"/>
<path d="M6.00003 11.0001C6.00003 13.7613 8.23878 16.0001 11 16.0001C13.7613 16.0001 16 13.7613 16 11.0001C16 8.23882 13.7613 6.00007 11 6.00007C8.23878 6.00007 6.00003 8.23882 6.00003 11.0001ZM14.125 11.0001C14.125 12.7226 12.7225 14.1251 11 14.1251C9.27628 14.1251 7.87503 12.7226 7.87503 11.0001C7.87503 9.27757 9.27628 7.87507 11 7.87507C12.7225 7.87507 14.125 9.27757 14.125 11.0001Z" fill="black"/>
<path d="M6.29126 5.62508C6.29126 5.25712 5.99298 4.95883 5.62502 4.95883C5.25706 4.95883 4.95877 5.25712 4.95877 5.62508C4.95877 5.99304 5.25706 6.29133 5.62502 6.29133C5.99298 6.29133 6.29126 5.99304 6.29126 5.62508Z" fill="black"/>
</svg>
